<svg xmlns="http://www.w3.org/2000/svg" xmlns:xlink="http://www.w3.org/1999/xlink" viewBox="0,0,255.98959,255.98959" width="128px" height="128px" fill-rule="nonzero"><g fill="#ffffff" fill-rule="nonzero" stroke="none" stroke-width="1" stroke-linecap="butt" stroke-linejoin="miter" stroke-miterlimit="10" stroke-dasharray="" stroke-dashoffset="0" font-family="none" font-weight="none" font-size="none" text-anchor="none" style="mix-blend-mode: normal"><g transform="scale(2,2)"><path d="M4,32c1.7,0 3,-1.3 3,-3v-15c0,-3.9 3.1,-7 7,-7h15c1.7,0 3,-1.3 3,-3c0,-1.7 -1.3,-3 -3,-3h-15c-7.2,0 -13,5.8 -13,13v15c0,1.7 1.3,3 3,3zM14,127h15c1.7,0 3,-1.3 3,-3c0,-1.7 -1.3,-3 -3,-3h-15c-3.9,0 -7,-3.1 -7,-7v-15c0,-1.7 -1.3,-3 -3,-3c-1.7,0 -3,1.3 -3,3v15c0,7.2 5.8,13 13,13zM124,96c-1.7,0 -3,1.3 -3,3v15c0,3.9 -3.1,7 -7,7h-15c-1.7,0 -3,1.3 -3,3c0,1.7 1.3,3 3,3h15c7.2,0 13,-5.8 13,-13v-15c0,-1.7 -1.3,-3 -3,-3zM114,1h-15c-1.7,0 -3,1.3 -3,3c0,1.7 1.3,3 3,3h15c3.9,0 7,3.1 7,7v15c0,1.7 1.3,3 3,3c1.7,0 3,-1.3 3,-3v-15c0,-7.2 -5.8,-13 -13,-13zM21,31v71c0,1.7 1.3,3 3,3c1.7,0 3,-1.3 3,-3v-71c0,-1.7 -1.3,-3 -3,-3c-1.7,0 -3,1.3 -3,3zM38,90c1.7,0 3,-1.3 3,-3v-56c0,-1.7 -1.3,-3 -3,-3c-1.7,0 -3,1.3 -3,3v56c0,1.7 1.3,3 3,3zM52,90c1.7,0 3,-1.3 3,-3v-56c0,-1.7 -1.3,-3 -3,-3c-1.7,0 -3,1.3 -3,3v56c0,1.7 1.3,3 3,3zM66,90c1.7,0 3,-1.3 3,-3v-56c0,-1.7 -1.3,-3 -3,-3c-1.7,0 -3,1.3 -3,3v56c0,1.7 1.3,3 3,3zM90,90c1.7,0 3,-1.3 3,-3v-56c0,-1.7 -1.3,-3 -3,-3c-1.7,0 -3,1.3 -3,3v56c0,1.7 1.3,3 3,3zM107,102v-71c0,-1.7 -1.3,-3 -3,-3c-1.7,0 -3,1.3 -3,3v71c0,1.7 1.3,3 3,3c1.7,0 3,-1.3 3,-3z"></path></g></g></svg>