<svg xmlns="http://www.w3.org/2000/svg" xmlns:xlink="http://www.w3.org/1999/xlink" viewBox="0,0,255.98959,255.98959" width="50px" height="50px" fill-rule="nonzero"><g fill="#ffffff" fill-rule="nonzero" stroke="none" stroke-width="1" stroke-linecap="butt" stroke-linejoin="miter" stroke-miterlimit="10" stroke-dasharray="" stroke-dashoffset="0" font-family="none" font-weight="none" font-size="none" text-anchor="none" style="mix-blend-mode: normal"><g transform="scale(5.12,5.12)"><path d="M3.21094,3l1.71094,23.94922l1.23438,17.25781c0.07813,1.17578 0.83984,2.15625 1.87891,2.57422c0,0.00391 0,0 0.00391,0c0.17188,0.07031 0.35156,0.125 0.53906,0.16016c0,0.00391 0,0 0,0c0.09375,0.01953 0.19141,0.02344 0.28906,0.03125c0.09375,0.00781 0.1875,0.02734 0.28516,0.02734c0,0 0,0 0.00391,0h14.26172c0.19531,0 0.38672,-0.01953 0.57031,-0.05859c0.1875,-0.03516 0.37109,-0.08984 0.54297,-0.16016c1.04297,-0.41797 1.80078,-1.39844 1.87891,-2.57031l1.28516,-17.97656l1.66406,-23.23437zM5.35938,5h21.85156l-0.64453,9h-20.56641zM44.23828,12c-4.76172,0 -8.9375,3.09375 -10.625,7.60938l-0.62891,-3.77344c-0.07031,-0.48047 -0.48047,-0.83984 -0.96875,-0.85156c-0.29687,-0.00391 -0.58594,0.125 -0.77734,0.35156c-0.19531,0.23047 -0.27734,0.53125 -0.22266,0.82812l0.85547,5.13281c-0.63672,0.14063 -1.25781,0.32031 -1.85547,0.55078l-1.60937,22.49609c0,0.01953 -0.00781,0.03516 -0.01172,0.05469c1.80859,1.01563 3.89063,1.60156 6.10547,1.60156c6.89453,0 12.5,-5.60547 12.5,-12.5c0,-5.17578 -3.16016,-9.62109 -7.65234,-11.51953c3.37109,-1.55469 5.92578,-4.76953 6.63672,-8.76172l0.12109,-1.09766l-1.10547,-0.08594c-0.25,-0.01562 -0.50391,-0.03516 -0.76172,-0.03516zM37,34c0.55078,0 1,0.44922 1,1c0,0.55078 -0.44922,1 -1,1c-0.55078,0 -1,-0.44922 -1,-1c0,-0.55078 0.44922,-1 1,-1zM41,34c0.55078,0 1,0.44922 1,1c0,0.55078 -0.44922,1 -1,1c-0.55078,0 -1,-0.44922 -1,-1c0,-0.55078 0.44922,-1 1,-1zM39,37c0.55078,0 1,0.44922 1,1c0,0.55078 -0.44922,1 -1,1c-0.55078,0 -1,-0.44922 -1,-1c0,-0.55078 0.44922,-1 1,-1z"></path></g></g></svg>