<svg xmlns="http://www.w3.org/2000/svg" xmlns:xlink="http://www.w3.org/1999/xlink" viewBox="0,0,255.98959,255.98959" width="50px" height="50px" fill-rule="nonzero"><g fill="#ffffff" fill-rule="nonzero" stroke="none" stroke-width="1" stroke-linecap="butt" stroke-linejoin="miter" stroke-miterlimit="10" stroke-dasharray="" stroke-dashoffset="0" font-family="none" font-weight="none" font-size="none" text-anchor="none" style="mix-blend-mode: normal"><g transform="scale(5.12,5.12)"><path d="M12,39h32v-37h-32c-3.309,0 -6,2.691 -6,6v34.417c0,3.079 2.691,5.583 6,5.583h32v-2h-32c-2.168,0 -4,-1.641 -4,-3.583c0,-1.916 1.757,-3.417 4,-3.417zM36.709,31.706c-0.195,0.196 -0.452,0.294 -0.709,0.294c-0.255,0 -0.511,-0.097 -0.705,-0.292l-6.523,-6.494l-1.76,1.76l-1.846,-1.879l3.153,-3.153l8.387,8.349c0.391,0.39 0.393,1.023 0.003,1.415zM16.286,10.007l7.733,7.781l-3.044,3.044l-4.745,-4.832c-1.662,-1.662 -1.636,-4.363 0.056,-5.993zM14.329,30.293l13.024,-13.024c-0.034,-0.085 -0.083,-0.163 -0.107,-0.252c-0.399,-1.509 -0.322,-3.426 1.045,-4.777c2.031,-2.094 5.497,-2.989 6.998,-1.505c1.501,1.571 0.596,4.909 -1.435,6.916c-1.444,1.428 -3.298,1.545 -4.8,1.16c-0.104,-0.027 -0.196,-0.081 -0.294,-0.122l-14.017,13.018c-0.195,0.195 0.549,0.293 0.293,0.293c-0.256,0 -0.512,-0.098 -0.707,-0.293c-0.391,-0.391 -0.391,-1.023 0,-1.414z"></path></g></g></svg>