<svg xmlns="http://www.w3.org/2000/svg" xmlns:xlink="http://www.w3.org/1999/xlink" viewBox="0,0,255.98959,255.98959" width="30px" height="30px" fill-rule="nonzero"><g fill="#ffffff" fill-rule="nonzero" stroke="none" stroke-width="1" stroke-linecap="butt" stroke-linejoin="miter" stroke-miterlimit="10" stroke-dasharray="" stroke-dashoffset="0" font-family="none" font-weight="none" font-size="none" text-anchor="none" style="mix-blend-mode: normal"><g transform="scale(8.53333,8.53333)"><path d="M9.54492,4c-3.615,0 -6.54492,2.92992 -6.54492,6.54492c0,6.2924 7.29898,12.30488 10.70898,14.98242c0.00325,0.00261 0.0065,0.00522 0.00977,0.00781c0.02337,0.01834 0.05513,0.04447 0.07813,0.0625l0.00195,-0.00195c0.34597,0.26142 0.76754,0.40331 1.20117,0.4043c0.4343,-0.00056 0.85662,-0.14248 1.20313,-0.4043v0.00195c0.00673,-0.00528 0.01668,-0.01227 0.02344,-0.01758c0.00514,-0.00403 0.01242,-0.00962 0.01758,-0.01367c0.00655,-0.00582 0.01306,-0.01168 0.01953,-0.01758c3.39944,-2.66792 10.73633,-8.69649 10.73633,-15.00391c0,-3.615 -2.92992,-6.54492 -6.54492,-6.54492c-3.455,0 -5.45508,3 -5.45508,3c0,0 -2.00008,-3 -5.45508,-3z"></path></g></g></svg>